FILE "Rayman - Kaizoman (v20230719) (Destabilize).bin" BINARY
  TRACK 01 MODE2/2352
    INDEX 01 00:00:00
  TRACK 02 AUDIO
    INDEX 00 09:18:30
    INDEX 01 09:20:30
  TRACK 03 AUDIO
    INDEX 00 09:29:55
    INDEX 01 09:31:55
  TRACK 04 AUDIO
    INDEX 00 10:39:13
    INDEX 01 10:41:13
  TRACK 05 AUDIO
    INDEX 00 11:46:41
    INDEX 01 11:48:41
  TRACK 06 AUDIO
    INDEX 00 12:51:65
    INDEX 01 12:53:65
  TRACK 07 AUDIO
    INDEX 00 13:20:12
    INDEX 01 13:22:12
  TRACK 08 AUDIO
    INDEX 00 14:31:68
    INDEX 01 14:33:68
  TRACK 09 AUDIO
    INDEX 00 15:33:24
    INDEX 01 15:35:24
  TRACK 10 AUDIO
    INDEX 00 16:29:74
    INDEX 01 16:31:74
  TRACK 11 AUDIO
    INDEX 00 17:34:71
    INDEX 01 17:36:71
  TRACK 12 AUDIO
    INDEX 00 19:01:64
    INDEX 01 19:03:64
  TRACK 13 AUDIO
    INDEX 00 20:04:12
    INDEX 01 20:06:12
  TRACK 14 AUDIO
    INDEX 00 21:13:35
    INDEX 01 21:15:35
  TRACK 15 AUDIO
    INDEX 00 22:17:68
    INDEX 01 22:19:68
  TRACK 16 AUDIO
    INDEX 00 23:23:51
    INDEX 01 23:25:51
  TRACK 17 AUDIO
    INDEX 00 24:32:11
    INDEX 01 24:34:11
  TRACK 18 AUDIO
    INDEX 00 25:19:22
    INDEX 01 25:21:22
  TRACK 19 AUDIO
    INDEX 00 26:17:10
    INDEX 01 26:19:10
  TRACK 20 AUDIO
    INDEX 00 27:14:01
    INDEX 01 27:16:01
  TRACK 21 AUDIO
    INDEX 00 28:19:67
    INDEX 01 28:21:67
  TRACK 22 AUDIO
    INDEX 00 29:25:55
    INDEX 01 29:27:55
  TRACK 23 AUDIO
    INDEX 00 30:42:57
    INDEX 01 30:44:57
  TRACK 24 AUDIO
    INDEX 00 31:18:74
    INDEX 01 31:20:74
  TRACK 25 AUDIO
    INDEX 00 31:55:29
    INDEX 01 31:57:29
  TRACK 26 AUDIO
    INDEX 00 33:02:72
    INDEX 01 33:04:72
  TRACK 27 AUDIO
    INDEX 00 34:10:55
    INDEX 01 34:12:55
  TRACK 28 AUDIO
    INDEX 00 35:17:40
    INDEX 01 35:19:40
  TRACK 29 AUDIO
    INDEX 00 36:28:43
    INDEX 01 36:30:43
  TRACK 30 AUDIO
    INDEX 00 36:37:04
    INDEX 01 36:39:04
  TRACK 31 AUDIO
    INDEX 00 36:44:24
    INDEX 01 36:46:24
  TRACK 32 AUDIO
    INDEX 00 38:07:07
    INDEX 01 38:09:07
  TRACK 33 AUDIO
    INDEX 00 39:14:05
    INDEX 01 39:16:05
  TRACK 34 AUDIO
    INDEX 00 40:14:01
    INDEX 01 40:16:01
  TRACK 35 AUDIO
    INDEX 00 41:25:30
    INDEX 01 41:27:30
  TRACK 36 AUDIO
    INDEX 00 42:35:24
    INDEX 01 42:37:24
  TRACK 37 AUDIO
    INDEX 00 43:40:00
    INDEX 01 43:42:00
  TRACK 38 AUDIO
    INDEX 00 44:48:44
    INDEX 01 44:50:44
  TRACK 39 AUDIO
    INDEX 00 45:54:34
    INDEX 01 45:56:34
  TRACK 40 AUDIO
    INDEX 00 46:53:48
    INDEX 01 46:55:48
  TRACK 41 AUDIO
    INDEX 00 47:40:50
    INDEX 01 47:42:50
  TRACK 42 AUDIO
    INDEX 00 48:53:39
    INDEX 01 48:55:39
  TRACK 43 AUDIO
    INDEX 00 49:56:46
    INDEX 01 49:58:46
  TRACK 44 AUDIO
    INDEX 00 51:02:73
    INDEX 01 51:04:73
  TRACK 45 AUDIO
    INDEX 00 52:11:60
    INDEX 01 52:13:60
  TRACK 46 AUDIO
    INDEX 00 53:18:27
    INDEX 01 53:20:27
  TRACK 47 AUDIO
    INDEX 00 54:16:56
    INDEX 01 54:18:56
  TRACK 48 AUDIO
    INDEX 00 55:20:54
    INDEX 01 55:22:54
  TRACK 49 AUDIO
    INDEX 00 56:22:60
    INDEX 01 56:24:60
  TRACK 50 AUDIO
    INDEX 00 57:02:68
    INDEX 01 57:04:68
  TRACK 51 AUDIO
    INDEX 00 57:46:19
    INDEX 01 57:48:19
